<svg width="168" height="56" fill="none" xmlns="http://www.w3.org/2000/svg"><g clip-path="url(#clip0_46_81)"><path d="M51.8 0h110.6a5.6 5.6 0 015.6 5.6v44.8a5.6 5.6 0 01-5.6 5.6H51.8V0z" fill="#0C8543"/><path d="M70.494 28a7.351 7.351 0 015.067 1.65 5.508 5.508 0 011.856 4.322 5.459 5.459 0 01-1.85 4.316 7.408 7.408 0 01-5.073 1.631h-3.153v4.149l2.004.385V46.7H61.6v-2.247l1.99-.385V30.646l-1.99-.38v-2.26h8.894V28zm-3.153 9.028h3.153a3.098 3.098 0 002.38-.854 3.052 3.052 0 00.798-2.177 3.179 3.179 0 00-.798-2.227 3.047 3.047 0 00-2.38-.88h-3.153v6.138zM87.415 46.7a6.787 6.787 0 01-.27-.713 5.613 5.613 0 01-.18-.738 5.16 5.16 0 01-1.624 1.246 4.86 4.86 0 01-2.19.475 4.588 4.588 0 01-3.242-1.112 3.921 3.921 0 01-1.201-3.024 3.439 3.439 0 011.567-3.018 8.184 8.184 0 014.597-1.066h1.914v-1.36a2.047 2.047 0 00-.578-1.554 2.38 2.38 0 00-1.708-.552 4.04 4.04 0 00-1.143.147 2.99 2.99 0 00-.809.353l-.245 1.482h-2.825l.013-3.08a10.563 10.563 0 012.356-1.169 8.539 8.539 0 012.896-.474 6.594 6.594 0 014.2 1.26 4.312 4.312 0 011.612 3.602v6.343c.003.18.018.36.045.54l1.142.153V46.7h-4.327zm-3.25-2.505a3.251 3.251 0 001.54-.365c.429-.215.799-.53 1.08-.919v-2.12h-1.913a2.613 2.613 0 00-1.811.56 1.749 1.749 0 00-.616 1.343A1.389 1.389 0 0082.9 43.8a1.86 1.86 0 001.264.396zm9.132.256l1.798-.385v-8.62l-1.99-.382v-2.26h5.483l.167 2.028a4.37 4.37 0 011.26-1.68 2.812 2.812 0 011.785-.604 4.65 4.65 0 011.169.155l-.398 3.415-1.54-.039a2.627 2.627 0 00-1.36.32c-.36.215-.647.532-.823.912v6.755l1.798.385V46.7h-7.349v-2.25zm16.632-15.053v3.404h2.441v2.633h-2.441v7.077c-.039.414.08.828.335 1.157a1.187 1.187 0 00.899.347c.225.002.449-.008.673-.03.192-.021.409-.057.648-.109l.321 2.71a9.003 9.003 0 01-1.246.289 8.67 8.67 0 01-1.336.097 3.996 3.996 0 01-2.986-1.066 4.675 4.675 0 01-1.043-3.38v-7.09h-2.044v-2.634h2.044V29.4l3.735-.002zm4.072 15.055l1.797-.385v-8.622l-1.991-.385v-2.26h5.484l.167 1.99a5.075 5.075 0 011.708-1.656 4.432 4.432 0 012.273-.59 4.18 4.18 0 013.289 1.322 6.113 6.113 0 011.182 4.148v6.05l1.797.385v2.25h-7.165v-2.247l1.606-.385V38.03a2.813 2.813 0 00-.56-1.984 2.276 2.276 0 00-1.708-.584 2.897 2.897 0 00-1.336.303 2.747 2.747 0 00-.988.854v7.449l1.516.385V46.7h-7.071v-2.247zm23.426 2.52a6.254 6.254 0 01-4.804-1.927 6.89 6.89 0 01-1.797-4.9v-.514a7.601 7.601 0 011.702-5.098 5.644 5.644 0 014.566-1.991 5.621 5.621 0 014.366 1.7 6.524 6.524 0 011.554 4.584v2.043h-8.296l-.025.077c.035.837.36 1.636.918 2.261a2.86 2.86 0 002.215.886 7.224 7.224 0 002.068-.248 9.52 9.52 0 001.797-.79l1.015 2.312a7.378 7.378 0 01-2.229 1.138 9.483 9.483 0 01-3.05.464v.003zm-.335-11.534a1.958 1.958 0 00-1.643.797 4.139 4.139 0 00-.745 2.1l.039.064h4.598v-.334a3.014 3.014 0 00-.56-1.907 2.011 2.011 0 00-1.687-.722l-.002.002zm7.98 9.016l1.798-.385v-8.624l-1.994-.382v-2.26h5.484l.167 2.028a4.362 4.362 0 011.26-1.68 2.812 2.812 0 011.785-.604 4.65 4.65 0 011.169.155l-.398 3.415-1.54-.039a2.628 2.628 0 00-1.361.32 2.08 2.08 0 00-.822.912v6.755l1.798.385V46.7h-7.349l.003-2.245zM52.5 55.3H5.6a4.906 4.906 0 01-4.9-4.9V5.6C.7 2.898 2.898.7 5.6.7h46.9v54.6z" fill="#fff"/><path d="M5.6 1.4a4.205 4.205 0 00-4.2 4.2v44.8c0 2.316 1.884 4.2 4.2 4.2h46.2V1.4H5.6zm0-1.4h47.6v56H5.6A5.6 5.6 0 010 50.4V5.6A5.6 5.6 0 015.6 0z" fill="#0C8543"/></g><rect x="1" y="1" width="166" height="54" rx="7" stroke="#fff" stroke-width="2"/><defs><clipPath id="clip0_46_81"><rect width="168" height="56" rx="8" fill="#fff"/></clipPath></defs></svg>