<svg width="168" height="56" viewBox="0 0 168 56" fill="none" xmlns="http://www.w3.org/2000/svg">
<g clip-path="url(#clip0_46_81)">
<path d="M51.8 0H162.4C163.885 0 165.31 0.589998 166.36 1.6402C167.41 2.69041 168 4.11479 168 5.6V50.4C168 51.8852 167.41 53.3096 166.36 54.3598C165.31 55.41 163.885 56 162.4 56H51.8V0Z" fill="#0C8543"/>
<path d="M70.4942 27.9998C72.3301 27.897 74.1378 28.4859 75.5608 29.6504C76.1701 30.189 76.6526 30.8559 76.9736 31.6031C77.2945 32.3504 77.4461 33.1594 77.4172 33.9722C77.4493 34.784 77.2998 35.5927 76.9796 36.3394C76.6594 37.0861 76.1766 37.752 75.5664 38.2884C74.1365 39.4423 72.3287 40.0236 70.4942 39.9194H67.3414V44.0676L69.3448 44.4526V46.6996H61.6V44.4526L63.5908 44.0676V30.6458L61.6 30.2664V28.0054H70.4942V27.9998ZM67.3414 37.0284H70.4942C70.9287 37.0614 71.3652 37.0024 71.7753 36.8552C72.1854 36.7081 72.5599 36.4761 72.8742 36.1744C73.4162 35.5819 73.7029 34.7998 73.6722 33.9974C73.7027 33.1799 73.4169 32.3821 72.8742 31.77C72.5641 31.4608 72.1909 31.2222 71.7802 31.0702C71.3695 30.9182 70.9309 30.8566 70.4942 30.8894H67.3414V37.0284ZM87.4146 46.6996C87.3113 46.4673 87.221 46.2294 87.1444 45.987C87.0681 45.7454 87.0082 45.4989 86.9652 45.2492C86.5125 45.7688 85.9603 46.1925 85.3412 46.4952C84.6583 46.8218 83.9085 46.9843 83.1516 46.9698C81.9678 47.0321 80.8058 46.6337 79.9092 45.8582C79.5041 45.4695 79.1873 44.9984 78.98 44.4767C78.7728 43.955 78.68 43.3949 78.708 42.8342C78.685 42.2384 78.8174 41.6469 79.092 41.1177C79.3667 40.5886 79.7742 40.1399 80.2746 39.8158C81.6693 39.0169 83.2683 38.6464 84.8722 38.7504H86.786V37.3896C86.8033 37.1046 86.7608 36.8191 86.6612 36.5515C86.5616 36.2838 86.4072 36.04 86.2078 35.8356C85.7323 35.4359 85.1193 35.2379 84.4998 35.284C84.1139 35.2782 83.7292 35.3277 83.3574 35.431C83.0717 35.5079 82.799 35.6268 82.5482 35.7838L82.3032 37.2664H79.478L79.4906 34.1864C80.224 33.6997 81.0156 33.307 81.8468 33.0174C82.7777 32.6932 83.7577 32.5326 84.7434 32.5428C86.2461 32.4714 87.7281 32.916 88.9434 33.8028C89.4793 34.2316 89.9051 34.7822 90.1854 35.4087C90.4656 36.0353 90.5923 36.7196 90.5548 37.405V43.145C90.5548 43.3587 90.5548 43.5598 90.5548 43.7484C90.5584 43.9288 90.5734 44.1088 90.5996 44.2874L91.742 44.4414V46.6996H87.4146ZM84.1652 44.195C84.7008 44.2019 85.2298 44.0764 85.7052 43.8296C86.1337 43.6148 86.504 43.2998 86.7846 42.9112V40.7916H84.8722C84.2195 40.7449 83.5731 40.9447 83.0606 41.3516C82.8662 41.5169 82.7103 41.7227 82.6039 41.9546C82.4975 42.1866 82.4431 42.439 82.4446 42.6942C82.4337 42.9007 82.4689 43.107 82.5479 43.2981C82.6269 43.4892 82.7475 43.6603 82.901 43.7988C83.2595 44.0816 83.7095 44.2226 84.1652 44.195ZM93.2974 44.4512L95.095 44.0662V35.4464L93.1042 35.0642V32.8032H98.588L98.7546 34.8318C99.0319 34.1778 99.4644 33.6011 100.015 33.1518C100.523 32.7514 101.153 32.5383 101.8 32.5484C102.008 32.5491 102.216 32.5641 102.423 32.5932C102.607 32.6162 102.79 32.6527 102.969 32.7024L102.571 36.1184L101.031 36.0792C100.557 36.0611 100.087 36.1719 99.6702 36.3998C99.3106 36.6138 99.0242 36.9315 98.8484 37.3112V44.0662L100.646 44.4512V46.6996H93.2974V44.4512ZM109.929 29.3984V32.8018H112.37V35.4352H109.929V42.5122C109.89 42.9262 110.009 43.3397 110.264 43.6686C110.381 43.7859 110.522 43.8774 110.677 43.9372C110.831 43.997 110.997 44.0238 111.163 44.0158C111.388 44.0182 111.612 44.0084 111.836 43.9864C112.028 43.9649 112.245 43.9285 112.484 43.8772L112.805 46.5876C112.397 46.7131 111.981 46.8095 111.559 46.876C111.117 46.9426 110.67 46.9749 110.223 46.9726C109.679 47.0081 109.134 46.9319 108.62 46.7486C108.107 46.5654 107.636 46.2791 107.237 45.9072C106.46 44.9604 106.085 43.7463 106.194 42.5262V35.4366H104.15V32.8032H106.194V29.3998L109.929 29.3984ZM114.001 44.4526L115.798 44.0676V35.4464L113.807 35.0614V32.8004H119.291L119.458 34.7912C119.888 34.1118 120.473 33.5442 121.166 33.135C121.857 32.7372 122.642 32.5331 123.439 32.5442C124.051 32.5103 124.663 32.6112 125.231 32.8399C125.799 33.0685 126.31 33.4192 126.728 33.8672C127.613 35.0602 128.033 36.535 127.91 38.0154V44.0648L129.707 44.4498V46.6996H122.542V44.4526L124.148 44.0676V38.0308C124.219 37.3225 124.019 36.6135 123.588 36.047C123.358 35.8383 123.088 35.6788 122.794 35.5784C122.5 35.478 122.189 35.4388 121.88 35.4632C121.417 35.4557 120.959 35.5594 120.544 35.7656C120.151 35.9666 119.812 36.2595 119.556 36.6196V44.069L121.072 44.454V46.6996H114.001V44.4526ZM137.427 46.9726C136.535 47.0127 135.645 46.8616 134.817 46.5293C133.988 46.197 133.24 45.6914 132.623 45.0462C131.405 43.7119 130.759 41.9521 130.826 40.1462V39.6324C130.753 37.7822 131.359 35.9691 132.528 34.5336C133.086 33.8749 133.788 33.353 134.58 33.0079C135.371 32.6628 136.231 32.5037 137.094 32.5428C137.901 32.4956 138.709 32.623 139.462 32.9163C140.216 33.2096 140.897 33.6619 141.46 34.2424C142.547 35.5148 143.103 37.1563 143.014 38.8274V40.87H134.718L134.693 40.947C134.728 41.7841 135.053 42.583 135.611 43.208C135.895 43.5062 136.239 43.7398 136.622 43.8927C137.004 44.0457 137.415 44.1144 137.826 44.0942C138.523 44.112 139.22 44.0285 139.894 43.8464C140.518 43.6459 141.121 43.3813 141.691 43.0568L142.706 45.3682C142.033 45.8717 141.28 46.2566 140.477 46.5064C139.493 46.8263 138.462 46.9828 137.427 46.9698V46.9726ZM137.092 35.4394C136.774 35.4288 136.458 35.4957 136.172 35.6345C135.886 35.7733 135.637 35.9798 135.449 36.236C135.013 36.8549 134.756 37.5811 134.704 38.336L134.743 38.4004H139.341V38.0658C139.375 37.3851 139.178 36.7128 138.781 36.159C138.577 35.9135 138.318 35.72 138.024 35.5944C137.731 35.4688 137.412 35.4147 137.094 35.4366L137.092 35.4394ZM145.072 44.4554L146.87 44.0704V35.4464L144.876 35.0642V32.8032H150.36L150.527 34.8318C150.804 34.1778 151.236 33.6011 151.787 33.1518C152.295 32.7514 152.925 32.5383 153.572 32.5484C153.78 32.5491 153.988 32.5641 154.195 32.5932C154.379 32.6162 154.562 32.6527 154.741 32.7024L154.343 36.1184L152.803 36.0792C152.329 36.0611 151.859 36.1719 151.442 36.3998C151.083 36.6138 150.796 36.9315 150.62 37.3112V44.0662L152.418 44.4512V46.6996H145.069L145.072 44.4554Z" fill="white"/>
<path d="M52.5 55.3002H5.60001C2.89814 55.3002 0.700012 53.1021 0.700012 50.4002V5.60019C0.700012 2.89832 2.89814 0.700195 5.60001 0.700195H52.5V55.3002Z" fill="white"/>
<path d="M5.6 1.4C3.28411 1.4 1.4 3.28411 1.4 5.6V50.4C1.4 52.7159 3.28411 54.6 5.6 54.6H51.8V1.4H5.6ZM5.6 0H53.2V56H5.6C2.5072 56 0 53.4928 0 50.4V5.6C0 2.5072 2.5072 0 5.6 0Z" fill="#0C8543"/>
</g>
<rect x="1" y="1" width="166" height="54" rx="7" stroke="white" stroke-width="2"/>
<defs>
<clipPath id="clip0_46_81">
<rect width="168" height="56" rx="8" fill="white"/>
</clipPath>
</defs>
</svg>
